# xmcd
#
# Track frame offsets:
#	150
#	20940
#	38133
#	53893
#	66150
#	80550
#	102510
#	120895
#	134810
#	147420
#
# Disc length: 2133 seconds
#
# Revision: 3786679754
# Processed by: cddbd v1.5.2PL0 Copyright (c) Steve Scherf et al.
# Submitted via: EZCDAudioConverter 9.1.1.1
#
DISCID=9508530a
DTITLE=Various Artist - Discovery Sampler: Country, Volume 1
DYEAR=1995
DGENRE=Country
TTITLE0=Jon Randall - What You Don't Know
TTITLE1=Jon Randall - If Blue Tears Were Silver
TTITLE2=Lee Roy Parnell - If the House Is Rockin'
TTITLE3=Lee Roy Parnell - A Little Bit of You
TTITLE4=Michael James - My Heart Knows Its Way Home
TTITLE5=Michael James - One of These Days
TTITLE6=Shaver - I Love You 'Til the Cows Come Home
TTITLE7=Shaver - Live Forever
TTITLE8=Kenny Chesney - Bigger the Fool
TTITLE9=Kenny Chesney - Honey Would You Stand by Me
EXTD=
EXTT0=
EXTT1=
EXTT2=
EXTT3=
EXTT4=
EXTT5=
EXTT6=
EXTT7=
EXTT8=
EXTT9=
PLAYORDER=
